<svg width="120" height="35" viewBox="0 0 120 35" fill="none" xmlns="http://www.w3.org/2000/svg">
<path d="M0.827637 25.167C0.827637 23.0576 0.827637 21.0654 0.827637 19.1904C0.856934 17.3154 0.900879 15.4697 0.959473 13.6533C1.04736 11.8076 1.1499 9.94727 1.26709 8.07227C1.38428 6.16797 1.54541 4.11719 1.75049 1.91992H3.0249V18.7949H12.605C12.5757 17.7402 12.561 16.6123 12.561 15.4111C12.561 14.1807 12.5464 12.9502 12.5171 11.7197C12.4878 10.46 12.4585 9.24414 12.4292 8.07227C12.4292 6.87109 12.4292 5.74316 12.4292 4.68848C12.4292 3.63379 12.4292 2.71094 12.4292 1.91992C12.4292 1.12891 12.4292 0.513672 12.4292 0.0742188C12.5171 0.0742188 12.6636 0.103516 12.8687 0.162109C13.103 0.191406 13.3228 0.25 13.5278 0.337891C13.7622 0.396484 13.9673 0.499023 14.1431 0.645508C14.3188 0.762695 14.4067 0.923828 14.4067 1.12891V34.0439L13.0444 33.7803C12.9858 33.7803 12.9419 33.5898 12.9126 33.209C12.8833 32.8281 12.854 32.3594 12.8247 31.8027C12.8247 31.2168 12.8101 30.5576 12.7808 29.8252C12.7808 29.0635 12.7661 28.3311 12.7368 27.6279C12.7368 26.8955 12.7222 26.207 12.6929 25.5625C12.6929 24.918 12.6929 24.376 12.6929 23.9365C12.6929 23.5264 12.6929 22.9697 12.6929 22.2666C12.6929 21.5635 12.6782 20.7578 12.6489 19.8496L3.0249 21.5635L2.93701 34.0879H0.827637C0.827637 34.0586 0.827637 33.8535 0.827637 33.4727C0.827637 33.0918 0.827637 32.623 0.827637 32.0664C0.827637 31.4805 0.827637 30.8506 0.827637 30.1768C0.827637 29.4736 0.827637 28.7998 0.827637 28.1553C0.827637 27.5107 0.827637 26.9248 0.827637 26.3975C0.827637 25.8701 0.827637 25.46 0.827637 25.167ZM17.439 10.3574C17.9077 9.68359 18.5229 9.1123 19.2847 8.64355C20.0757 8.14551 20.9399 7.73535 21.8774 7.41309C22.8442 7.09082 23.8696 6.8418 24.9536 6.66602C26.0669 6.49023 27.1509 6.3584 28.2056 6.27051C29.2603 6.18262 30.2856 6.12402 31.2817 6.09473C32.2778 6.06543 33.1567 6.05078 33.9185 6.05078C33.9771 6.05078 34.1089 6.06543 34.314 6.09473C34.519 6.09473 34.7388 6.10938 34.9731 6.13867C35.2075 6.13867 35.4126 6.13867 35.5884 6.13867C35.7935 6.13867 35.9399 6.13867 36.0278 6.13867C36.145 6.7832 36.0718 7.2373 35.8081 7.50098C35.5737 7.73535 35.2515 7.88184 34.8413 7.94043C34.4604 7.96973 34.0503 7.95508 33.6108 7.89648C33.1714 7.80859 32.8491 7.79395 32.644 7.85254C32.3511 7.88184 31.8823 7.96973 31.2378 8.11621C30.6226 8.2334 29.9341 8.37988 29.1724 8.55566C28.4106 8.70215 27.5903 8.87793 26.7114 9.08301C25.8618 9.25879 25.0415 9.43457 24.2505 9.61035C23.4888 9.75684 22.8003 9.90332 22.1851 10.0498C21.5698 10.1963 21.1157 10.2988 20.8228 10.3574C20.354 10.5332 20.0903 10.7529 20.0317 11.0166C19.9731 11.2803 19.9438 11.5879 19.9438 11.9395C19.9438 12.5547 19.9731 13.2432 20.0317 14.0049C20.1196 14.7666 20.2075 15.5283 20.2954 16.29C20.4126 17.0225 20.5151 17.6963 20.603 18.3115C20.7202 18.9268 20.7935 19.3809 20.8228 19.6738C20.9399 19.7031 21.1597 19.7178 21.4819 19.7178C21.8042 19.7178 22.0239 19.7178 22.1411 19.7178C22.8149 19.7178 23.4741 19.6592 24.1187 19.542C24.7632 19.4248 25.4077 19.293 26.0522 19.1465C26.6968 19 27.356 18.8828 28.0298 18.7949C28.7036 18.6777 29.3921 18.6191 30.0952 18.6191V20.2451C29.8022 20.2451 29.3921 20.2744 28.8647 20.333C28.3374 20.3623 27.7515 20.4355 27.1069 20.5527C26.4917 20.6699 25.8618 20.8018 25.2173 20.9482C24.5728 21.0654 23.9868 21.1973 23.4595 21.3438C22.9321 21.4902 22.4927 21.6367 22.1411 21.7832C21.8188 21.9297 21.6577 22.0762 21.6577 22.2227V31.3633C23.0347 31.3633 24.397 31.3193 25.7446 31.2314C27.1216 31.1436 28.4985 31.0557 29.8755 30.9678C31.2524 30.8506 32.6294 30.748 34.0063 30.6602C35.3833 30.5723 36.7603 30.5283 38.1372 30.5283C38.1372 30.8799 38.02 31.1729 37.7856 31.4072C37.5513 31.6123 37.2729 31.7881 36.9507 31.9346C36.6577 32.0518 36.3354 32.1396 35.9839 32.1982C35.6323 32.2568 35.3687 32.3008 35.1929 32.3301C35.0757 32.3594 34.7095 32.4033 34.0942 32.4619C33.479 32.5205 32.7173 32.6084 31.8091 32.7256C30.9009 32.8428 29.8901 32.96 28.7769 33.0771C27.6636 33.1943 26.5649 33.3115 25.481 33.4287C24.397 33.5459 23.3716 33.6631 22.4048 33.7803C21.438 33.8682 20.6323 33.9414 19.9878 34C19.8999 34.0293 19.7681 34.0439 19.5923 34.0439C19.5923 30.1182 19.4604 26.1631 19.1968 22.1787C18.9624 18.165 18.3765 14.2246 17.439 10.3574ZM39.8071 27.2324C39.8071 26.8516 39.8218 26.5146 39.8511 26.2217C39.9097 25.9287 40.1733 25.709 40.6421 25.5625C41.1401 25.7676 41.5063 26.0898 41.7407 26.5293C41.9751 26.9395 42.1655 27.4082 42.312 27.9355C42.4878 28.4629 42.6343 29.0049 42.7515 29.5615C42.8979 30.1182 43.103 30.6162 43.3667 31.0557C43.6304 31.4951 44.0112 31.8467 44.5093 32.1104C45.0073 32.3447 45.6812 32.418 46.5308 32.3301C48.0542 32.1836 49.3433 31.9199 50.3979 31.5391C51.4526 31.1289 52.3169 30.6309 52.9907 30.0449C53.6938 29.459 54.2358 28.7705 54.6167 27.9795C55.0269 27.1885 55.3198 26.3096 55.4956 25.3428C55.7007 24.376 55.8179 23.3359 55.8472 22.2227C55.9058 21.0801 55.9351 19.8643 55.9351 18.5752C55.9351 17.2568 55.8325 15.9531 55.6274 14.6641C55.4517 13.375 55.2466 12.1006 55.0122 10.8408C54.8071 9.55176 54.6021 8.27734 54.397 7.01758C54.2212 5.72852 54.1333 4.43945 54.1333 3.15039C54.1333 3.00391 54.1333 2.88672 54.1333 2.79883C54.1626 2.68164 54.2358 2.6084 54.353 2.5791C54.4995 2.52051 54.6753 2.50586 54.8804 2.53516C55.1147 2.56445 55.437 2.65234 55.8472 2.79883C55.8765 2.82812 55.9351 3.0332 56.0229 3.41406C56.1401 3.76562 56.2573 4.21973 56.3745 4.77637C56.4917 5.33301 56.6089 5.94824 56.7261 6.62207C56.8433 7.2959 56.9458 7.96973 57.0337 8.64355C57.1509 9.31738 57.2534 9.96191 57.3413 10.5771C57.4292 11.1631 57.4878 11.6611 57.5171 12.0713C57.6343 13.8291 57.7808 15.6162 57.9565 17.4326C58.1323 19.249 58.2056 21.0068 58.1763 22.7061C58.147 24.4053 57.9565 25.9873 57.605 27.4521C57.2827 28.8877 56.6821 30.1328 55.8032 31.1875C54.9243 32.2129 53.7085 33.0039 52.1558 33.5605C50.603 34.0879 48.6108 34.2637 46.1792 34.0879C45.3003 34.0879 44.4653 33.8975 43.6743 33.5166C42.9126 33.1064 42.2388 32.5791 41.6528 31.9346C41.0962 31.29 40.6421 30.5576 40.2905 29.7373C39.9683 28.917 39.8071 28.082 39.8071 27.2324ZM68.8989 22.2227H67.229L63.0103 13.7852V33.165L61.0767 33.4287C61.0181 32.4033 60.9595 31.1143 60.9009 29.5615C60.8716 28.0088 60.8276 26.3389 60.769 24.5518C60.7397 22.7354 60.7104 20.875 60.6812 18.9707C60.6519 17.0664 60.6226 15.2354 60.5933 13.4775C60.564 11.7197 60.52 10.1084 60.4614 8.64355C60.4321 7.17871 60.3882 5.99219 60.3296 5.08398C60.5347 5.08398 60.7251 5.06934 60.9009 5.04004C61.106 5.01074 61.2817 4.99609 61.4282 4.99609C61.5747 4.9668 61.7065 4.98145 61.8237 5.04004C61.9409 5.09863 62.0435 5.23047 62.1313 5.43555L68.064 18.7949L73.1177 6.13867C73.1763 5.99219 73.2788 5.875 73.4253 5.78711C73.6011 5.66992 73.7769 5.56738 73.9526 5.47949C74.1577 5.3916 74.3628 5.33301 74.5679 5.30371C74.7729 5.24512 74.9487 5.21582 75.0952 5.21582C75.1245 5.21582 75.1392 5.25977 75.1392 5.34766C75.1392 5.43555 75.1685 5.74316 75.2271 6.27051C75.2856 6.79785 75.3735 7.63281 75.4907 8.77539C75.6372 9.88867 75.8569 11.4854 76.1499 13.5654C76.4429 15.6162 76.8091 18.2383 77.2485 21.4316C77.7173 24.5957 78.3032 28.5068 79.0063 33.165C78.8892 33.4287 78.728 33.6045 78.5229 33.6924C78.3472 33.7803 78.1714 33.8096 77.9956 33.7803C77.8491 33.751 77.7026 33.6924 77.5562 33.6045C77.439 33.4873 77.3657 33.3408 77.3364 33.165L73.9966 9.56641L68.8989 22.2227ZM97.3755 23.0137C96.2036 25.9727 95.0464 28.2578 93.9038 29.8691C92.7612 31.4805 91.6479 32.5645 90.564 33.1211C89.48 33.6484 88.4546 33.707 87.4878 33.2969C86.521 32.8867 85.6274 32.1396 84.8071 31.0557C84.0161 29.9424 83.3276 28.5508 82.7417 26.8809C82.1851 25.2109 81.731 23.3799 81.3794 21.3877C81.0571 19.3955 80.8813 17.3154 80.8521 15.1475C80.8521 12.9502 81.0278 10.7969 81.3794 8.6875L83.0933 8.86328C82.771 12.6133 82.7271 15.8799 82.9614 18.6631C83.2251 21.417 83.6353 23.7168 84.1919 25.5625C84.7485 27.4082 85.3931 28.8145 86.1255 29.7812C86.8579 30.748 87.561 31.3047 88.2349 31.4512C89.231 31.4512 90.1099 31.1875 90.8716 30.6602C91.6626 30.1328 92.3511 29.4443 92.937 28.5947C93.5522 27.7451 94.0649 26.7783 94.4751 25.6943C94.9146 24.6104 95.2661 23.5117 95.5298 22.3984C95.7935 21.2852 95.9839 20.2158 96.1011 19.1904C96.2183 18.1357 96.2769 17.2275 96.2769 16.4658C96.2769 15.4697 96.2476 14.5908 96.189 13.8291C96.1304 13.0381 96.0278 12.2617 95.8813 11.5C95.7642 10.7383 95.6177 9.96191 95.4419 9.1709C95.2954 8.35059 95.1196 7.41309 94.9146 6.3584L97.0679 4.77637C97.7417 9.02441 98.313 12.6719 98.7817 15.7188C99.2798 18.7363 99.7046 21.2705 100.056 23.3213C100.408 25.3428 100.686 26.9688 100.891 28.1992C101.096 29.4004 101.257 30.3525 101.375 31.0557C101.521 31.7295 101.609 32.2129 101.638 32.5059C101.697 32.7695 101.726 32.9893 101.726 33.165H99.9243L97.3755 23.0137ZM110.559 6.62207C111.643 6.62207 112.581 6.94434 113.372 7.58887C114.192 8.2041 114.895 9.03906 115.481 10.0938C116.096 11.1484 116.609 12.3643 117.019 13.7412C117.429 15.1182 117.766 16.5684 118.03 18.0918C118.293 19.5859 118.499 21.1094 118.645 22.6621C118.792 24.1855 118.894 25.6211 118.953 26.9688C119.011 28.3164 119.041 29.5322 119.041 30.6162C119.07 31.7002 119.084 32.5498 119.084 33.165H118.03L116.36 23.8926C116.213 23.7461 115.876 23.6582 115.349 23.6289C114.851 23.5996 114.25 23.6143 113.547 23.6729C112.874 23.7314 112.126 23.8193 111.306 23.9365C110.515 24.0244 109.753 24.0977 109.021 24.1562C108.318 24.1855 107.673 24.2002 107.087 24.2002C106.501 24.1709 106.077 24.0684 105.813 23.8926V33.165H103.572C103.572 33.0771 103.572 32.916 103.572 32.6816C103.601 32.418 103.616 32.1543 103.616 31.8906C103.616 31.627 103.63 31.3779 103.66 31.1436C103.689 30.9092 103.704 30.748 103.704 30.6602C103.879 28.9609 104.011 27.2471 104.099 25.5186C104.216 23.7607 104.348 22.0615 104.495 20.4209C104.641 18.7803 104.832 17.2129 105.066 15.7188C105.33 14.2246 105.696 12.877 106.165 11.6758C106.633 10.4453 107.219 9.40527 107.922 8.55566C108.625 7.67676 109.504 7.03223 110.559 6.62207ZM111.262 8.64355C110.5 8.64355 109.856 8.92188 109.329 9.47852C108.831 10.0059 108.42 10.709 108.098 11.5879C107.776 12.4375 107.527 13.3896 107.351 14.4443C107.175 15.499 107.058 16.5391 107 17.5645C106.941 18.5605 106.897 19.498 106.868 20.377C106.868 21.2266 106.868 21.8857 106.868 22.3545C108.303 22.3545 109.768 22.252 111.262 22.0469C112.756 21.8125 114.163 21.5781 115.481 21.3438C115.51 21.2266 115.525 21.0361 115.525 20.7725C115.554 20.5088 115.569 20.2158 115.569 19.8936C115.598 19.5713 115.613 19.2637 115.613 18.9707C115.642 18.6777 115.657 18.4873 115.657 18.3994C115.657 17.4326 115.598 16.5098 115.481 15.6309C115.393 14.752 115.188 13.9023 114.866 13.082C114.573 12.2324 114.133 11.4414 113.547 10.709C112.991 9.97656 112.229 9.28809 111.262 8.64355Z" fill="url(#paint0_linear_3_9)"/>
<defs>
<linearGradient id="paint0_linear_3_9" x1="-72" y1="20" x2="192" y2="20" gradientUnits="userSpaceOnUse">
<stop stop-color="#F12711"/>
<stop offset="1" stop-color="#F5AF19"/>
</linearGradient>
</defs>
</svg>
