<svg width="305" height="39" viewBox="0 0 305 39" fill="none" xmlns="http://www.w3.org/2000/svg">
<path d="M0.493164 20.4102C0.493164 19.4434 0.551758 18.418 0.668945 17.334C0.81543 16.25 1.03516 15.1953 1.32812 14.1699C1.65039 13.1152 2.0459 12.1191 2.51465 11.1816C3.0127 10.2148 3.59863 9.37988 4.27246 8.67676C4.97559 7.94434 5.78125 7.37305 6.68945 6.96289C7.62695 6.52344 8.68164 6.30371 9.85352 6.30371C10.8789 6.30371 11.7871 6.59668 12.5781 7.18262C13.3691 7.73926 14.0576 8.48633 14.6436 9.42383C15.2295 10.332 15.7129 11.3721 16.0938 12.5439C16.4746 13.7158 16.7822 14.9023 17.0166 16.1035C17.2803 17.2754 17.4561 18.418 17.5439 19.5312C17.6318 20.6152 17.6758 21.5527 17.6758 22.3438C17.5586 24.0723 17.3096 25.6689 16.9287 27.1338C16.5479 28.5693 16.0205 29.8438 15.3467 30.957C14.7021 32.041 13.8965 32.9346 12.9297 33.6377C11.9629 34.3408 10.791 34.8096 9.41406 35.0439C8.0957 35.0439 6.96777 34.8096 6.03027 34.3408C5.09277 33.8721 4.28711 33.2568 3.61328 32.4951C2.93945 31.7334 2.39746 30.8545 1.9873 29.8584C1.57715 28.8623 1.25488 27.8223 1.02051 26.7383C0.81543 25.6543 0.668945 24.5703 0.581055 23.4863C0.522461 22.373 0.493164 21.3477 0.493164 20.4102ZM2.16309 20.4102C2.16309 21.1133 2.17773 21.9043 2.20703 22.7832C2.23633 23.6621 2.30957 24.5557 2.42676 25.4639C2.57324 26.3428 2.77832 27.2217 3.04199 28.1006C3.30566 28.9502 3.65723 29.7119 4.09668 30.3857C4.56543 31.0303 5.13672 31.5576 5.81055 31.9678C6.51367 32.3779 7.34863 32.583 8.31543 32.583C9.72168 32.6709 10.8789 32.4951 11.7871 32.0557C12.6953 31.6162 13.4277 30.9424 13.9844 30.0342C14.541 29.126 14.9658 28.0273 15.2588 26.7383C15.5518 25.4492 15.7861 23.9844 15.9619 22.3438C15.9619 21.6992 15.9326 20.8936 15.874 19.9268C15.8154 18.96 15.6982 17.9492 15.5225 16.8945C15.376 15.8398 15.1562 14.7852 14.8633 13.7305C14.5996 12.6465 14.2334 11.6797 13.7646 10.8301C13.3252 9.95117 12.7832 9.24805 12.1387 8.7207C11.5234 8.19336 10.7764 7.92969 9.89746 7.92969C8.98926 7.92969 8.16895 8.14941 7.43652 8.58887C6.7041 8.99902 6.04492 9.55566 5.45898 10.2588C4.90234 10.9326 4.4043 11.709 3.96484 12.5879C3.55469 13.4668 3.21777 14.375 2.9541 15.3125C2.69043 16.2207 2.48535 17.1289 2.33887 18.0371C2.22168 18.916 2.16309 19.707 2.16309 20.4102ZM29.2334 23.2227H27.5635L23.3447 14.7852V34.165L21.4111 34.4287C21.3525 33.4033 21.2939 32.1143 21.2354 30.5615C21.2061 29.0088 21.1621 27.3389 21.1035 25.5518C21.0742 23.7354 21.0449 21.875 21.0156 19.9707C20.9863 18.0664 20.957 16.2354 20.9277 14.4775C20.8984 12.7197 20.8545 11.1084 20.7959 9.64355C20.7666 8.17871 20.7227 6.99219 20.6641 6.08398C20.8691 6.08398 21.0596 6.06934 21.2354 6.04004C21.4404 6.01074 21.6162 5.99609 21.7627 5.99609C21.9092 5.9668 22.041 5.98145 22.1582 6.04004C22.2754 6.09863 22.3779 6.23047 22.4658 6.43555L28.3984 19.7949L33.4521 7.13867C33.5107 6.99219 33.6133 6.875 33.7598 6.78711C33.9355 6.66992 34.1113 6.56738 34.2871 6.47949C34.4922 6.3916 34.6973 6.33301 34.9023 6.30371C35.1074 6.24512 35.2832 6.21582 35.4297 6.21582C35.459 6.21582 35.4736 6.25977 35.4736 6.34766C35.4736 6.43555 35.5029 6.74316 35.5615 7.27051C35.6201 7.79785 35.708 8.63281 35.8252 9.77539C35.9717 10.8887 36.1914 12.4854 36.4844 14.5654C36.7773 16.6162 37.1436 19.2383 37.583 22.4316C38.0518 25.5957 38.6377 29.5068 39.3408 34.165C39.2236 34.4287 39.0625 34.6045 38.8574 34.6924C38.6816 34.7803 38.5059 34.8096 38.3301 34.7803C38.1836 34.751 38.0371 34.6924 37.8906 34.6045C37.7734 34.4873 37.7002 34.3408 37.6709 34.165L34.3311 10.5664L29.2334 23.2227ZM40.835 11.3574C41.3037 10.6836 41.9189 10.1123 42.6807 9.64355C43.4717 9.14551 44.3359 8.73535 45.2734 8.41309C46.2402 8.09082 47.2656 7.8418 48.3496 7.66602C49.4629 7.49023 50.5469 7.3584 51.6016 7.27051C52.6562 7.18262 53.6816 7.12402 54.6777 7.09473C55.6738 7.06543 56.5527 7.05078 57.3145 7.05078C57.373 7.05078 57.5049 7.06543 57.71 7.09473C57.915 7.09473 58.1348 7.10938 58.3691 7.13867C58.6035 7.13867 58.8086 7.13867 58.9844 7.13867C59.1895 7.13867 59.3359 7.13867 59.4238 7.13867C59.541 7.7832 59.4678 8.2373 59.2041 8.50098C58.9697 8.73535 58.6475 8.88184 58.2373 8.94043C57.8564 8.96973 57.4463 8.95508 57.0068 8.89648C56.5674 8.80859 56.2451 8.79395 56.04 8.85254C55.7471 8.88184 55.2783 8.96973 54.6338 9.11621C54.0186 9.2334 53.3301 9.37988 52.5684 9.55566C51.8066 9.70215 50.9863 9.87793 50.1074 10.083C49.2578 10.2588 48.4375 10.4346 47.6465 10.6104C46.8848 10.7568 46.1963 10.9033 45.5811 11.0498C44.9658 11.1963 44.5117 11.2988 44.2188 11.3574C43.75 11.5332 43.4863 11.7529 43.4277 12.0166C43.3691 12.2803 43.3398 12.5879 43.3398 12.9395C43.3398 13.5547 43.3691 14.2432 43.4277 15.0049C43.5156 15.7666 43.6035 16.5283 43.6914 17.29C43.8086 18.0225 43.9111 18.6963 43.999 19.3115C44.1162 19.9268 44.1895 20.3809 44.2188 20.6738C44.3359 20.7031 44.5557 20.7178 44.8779 20.7178C45.2002 20.7178 45.4199 20.7178 45.5371 20.7178C46.2109 20.7178 46.8701 20.6592 47.5146 20.542C48.1592 20.4248 48.8037 20.293 49.4482 20.1465C50.0928 20 50.752 19.8828 51.4258 19.7949C52.0996 19.6777 52.7881 19.6191 53.4912 19.6191V21.2451C53.1982 21.2451 52.7881 21.2744 52.2607 21.333C51.7334 21.3623 51.1475 21.4355 50.5029 21.5527C49.8877 21.6699 49.2578 21.8018 48.6133 21.9482C47.9688 22.0654 47.3828 22.1973 46.8555 22.3438C46.3281 22.4902 45.8887 22.6367 45.5371 22.7832C45.2148 22.9297 45.0537 23.0762 45.0537 23.2227V32.3633C46.4307 32.3633 47.793 32.3193 49.1406 32.2314C50.5176 32.1436 51.8945 32.0557 53.2715 31.9678C54.6484 31.8506 56.0254 31.748 57.4023 31.6602C58.7793 31.5723 60.1562 31.5283 61.5332 31.5283C61.5332 31.8799 61.416 32.1729 61.1816 32.4072C60.9473 32.6123 60.6689 32.7881 60.3467 32.9346C60.0537 33.0518 59.7314 33.1396 59.3799 33.1982C59.0283 33.2568 58.7646 33.3008 58.5889 33.3301C58.4717 33.3594 58.1055 33.4033 57.4902 33.4619C56.875 33.5205 56.1133 33.6084 55.2051 33.7256C54.2969 33.8428 53.2861 33.96 52.1729 34.0771C51.0596 34.1943 49.9609 34.3115 48.877 34.4287C47.793 34.5459 46.7676 34.6631 45.8008 34.7803C44.834 34.8682 44.0283 34.9414 43.3838 35C43.2959 35.0293 43.1641 35.0439 42.9883 35.0439C42.9883 31.1182 42.8564 27.1631 42.5928 23.1787C42.3584 19.165 41.7725 15.2246 40.835 11.3574ZM83.4619 32.0996C82.3193 32.6855 81.3086 33.1543 80.4297 33.5059C79.5508 33.8574 78.7012 34.1357 77.8809 34.3408C77.0605 34.5166 76.2256 34.6338 75.376 34.6924C74.5557 34.751 73.6035 34.7803 72.5195 34.7803C71.084 34.7803 69.7949 34.6191 68.6523 34.2969C67.5098 33.9453 66.5283 33.4326 65.708 32.7588C64.917 32.0557 64.3018 31.1768 63.8623 30.1221C63.4229 29.0381 63.2031 27.7344 63.2031 26.2109C63.2031 24.834 63.335 23.3838 63.5986 21.8604C63.8916 20.3369 64.3018 18.8281 64.8291 17.334C65.3857 15.8105 66.0596 14.3604 66.8506 12.9834C67.6709 11.5771 68.623 10.3467 69.707 9.29199C70.791 8.2373 72.0068 7.40234 73.3545 6.78711C74.7021 6.14258 76.1963 5.82031 77.8369 5.82031C78.4521 5.82031 79.1846 5.89355 80.0342 6.04004C80.8838 6.15723 81.6895 6.37695 82.4512 6.69922C83.2422 6.99219 83.9014 7.43164 84.4287 8.01758C84.9561 8.57422 85.2197 9.29199 85.2197 10.1709C85.2197 10.4932 85.0586 10.6543 84.7363 10.6543C84.4434 10.625 84.0625 10.5078 83.5938 10.3027C83.1543 10.0977 82.6416 9.83398 82.0557 9.51172C81.499 9.18945 80.957 8.88184 80.4297 8.58887C79.9023 8.2959 79.4189 8.04688 78.9795 7.8418C78.54 7.63672 78.2031 7.56348 77.9688 7.62207C76.5625 7.62207 75.2881 7.90039 74.1455 8.45703C73.0029 8.98438 71.9629 9.70215 71.0254 10.6104C70.1172 11.5186 69.3115 12.5732 68.6084 13.7744C67.9346 14.9463 67.3633 16.1768 66.8945 17.4658C66.4551 18.7549 66.1182 20.0439 65.8838 21.333C65.6787 22.5928 65.5762 23.7939 65.5762 24.9365C65.3711 26.3135 65.4443 27.5146 65.7959 28.54C66.1768 29.5361 66.7334 30.3711 67.4658 31.0449C68.1982 31.6895 69.0771 32.1729 70.1025 32.4951C71.1279 32.8174 72.1826 33.0078 73.2666 33.0664C74.3799 33.0957 75.4785 32.9932 76.5625 32.7588C77.6465 32.4951 78.6279 32.1143 79.5068 31.6162C80.415 31.1182 81.1475 30.5029 81.7041 29.7705C82.29 29.0381 82.627 28.2178 82.7148 27.3096C82.7148 26.3721 82.5244 25.5811 82.1436 24.9365C81.792 24.292 81.3086 23.75 80.6934 23.3105C80.1074 22.8711 79.4189 22.5195 78.6279 22.2559C77.8662 21.9922 77.0752 21.7871 76.2549 21.6406C75.4639 21.4941 74.6582 21.3916 73.8379 21.333C73.0469 21.2744 72.3145 21.2012 71.6406 21.1133V20.3223C71.6406 20.2637 72.0215 20.1611 72.7832 20.0146C73.5742 19.8682 74.4971 19.707 75.5518 19.5312C76.6357 19.3555 77.749 19.1797 78.8916 19.0039C80.0342 18.8281 81.001 18.6963 81.792 18.6084C81.792 18.6084 81.8652 18.6084 82.0117 18.6084C82.1582 18.5791 82.3193 18.5645 82.4951 18.5645C82.6709 18.5645 82.8467 18.5645 83.0225 18.5645C83.1982 18.5645 83.3447 18.5645 83.4619 18.5645C83.5205 18.5645 83.623 18.5645 83.7695 18.5645C83.9453 18.5645 84.1211 18.5645 84.2969 18.5645C84.4727 18.5645 84.6338 18.5791 84.7803 18.6084C84.9561 18.6084 85.0732 18.6084 85.1318 18.6084C85.1611 19.0186 85.1904 19.6777 85.2197 20.5859C85.2783 21.4648 85.3369 22.4609 85.3955 23.5742C85.4541 24.6582 85.5127 25.8154 85.5713 27.0459C85.6299 28.2764 85.6885 29.4482 85.7471 30.5615C85.8057 31.6455 85.8496 32.627 85.8789 33.5059C85.9375 34.3848 85.9814 35.0439 86.0107 35.4834C86.0107 35.6006 86.0107 35.8203 86.0107 36.1426C86.0107 36.4648 86.0107 36.8018 86.0107 37.1533C86.04 37.5342 86.0547 37.8711 86.0547 38.1641C86.0547 38.4863 86.0547 38.7207 86.0547 38.8672H85.1318L83.4619 32.0996ZM83.4619 22.8271V20.1465C83.0225 20.1465 82.5684 20.2637 82.0996 20.498C81.6309 20.7031 81.2354 20.9082 80.9131 21.1133L83.4619 22.8271ZM94.9756 7.62207C96.0596 7.62207 96.9971 7.94434 97.7881 8.58887C98.6084 9.2041 99.3115 10.0391 99.8975 11.0938C100.513 12.1484 101.025 13.3643 101.436 14.7412C101.846 16.1182 102.183 17.5684 102.446 19.0918C102.71 20.5859 102.915 22.1094 103.062 23.6621C103.208 25.1855 103.311 26.6211 103.369 27.9688C103.428 29.3164 103.457 30.5322 103.457 31.6162C103.486 32.7002 103.501 33.5498 103.501 34.165H102.446L100.776 24.8926C100.63 24.7461 100.293 24.6582 99.7656 24.6289C99.2676 24.5996 98.667 24.6143 97.9639 24.6729C97.29 24.7314 96.543 24.8193 95.7227 24.9365C94.9316 25.0244 94.1699 25.0977 93.4375 25.1562C92.7344 25.1855 92.0898 25.2002 91.5039 25.2002C90.918 25.1709 90.4932 25.0684 90.2295 24.8926V34.165H87.9883C87.9883 34.0771 87.9883 33.916 87.9883 33.6816C88.0176 33.418 88.0322 33.1543 88.0322 32.8906C88.0322 32.627 88.0469 32.3779 88.0762 32.1436C88.1055 31.9092 88.1201 31.748 88.1201 31.6602C88.2959 29.9609 88.4277 28.2471 88.5156 26.5186C88.6328 24.7607 88.7646 23.0615 88.9111 21.4209C89.0576 19.7803 89.248 18.2129 89.4824 16.7188C89.7461 15.2246 90.1123 13.877 90.5811 12.6758C91.0498 11.4453 91.6357 10.4053 92.3389 9.55566C93.042 8.67676 93.9209 8.03223 94.9756 7.62207ZM95.6787 9.64355C94.917 9.64355 94.2725 9.92188 93.7451 10.4785C93.2471 11.0059 92.8369 11.709 92.5146 12.5879C92.1924 13.4375 91.9434 14.3896 91.7676 15.4443C91.5918 16.499 91.4746 17.5391 91.416 18.5645C91.3574 19.5605 91.3135 20.498 91.2842 21.377C91.2842 22.2266 91.2842 22.8857 91.2842 23.3545C92.7197 23.3545 94.1846 23.252 95.6787 23.0469C97.1729 22.8125 98.5791 22.5781 99.8975 22.3438C99.9268 22.2266 99.9414 22.0361 99.9414 21.7725C99.9707 21.5088 99.9854 21.2158 99.9854 20.8936C100.015 20.5713 100.029 20.2637 100.029 19.9707C100.059 19.6777 100.073 19.4873 100.073 19.3994C100.073 18.4326 100.015 17.5098 99.8975 16.6309C99.8096 15.752 99.6045 14.9023 99.2822 14.082C98.9893 13.2324 98.5498 12.4414 97.9639 11.709C97.4072 10.9766 96.6455 10.2881 95.6787 9.64355Z" fill="white"/>
<path d="M122.046 11.3574C122.515 10.6836 123.13 10.1123 123.892 9.64355C124.683 9.14551 125.547 8.73535 126.484 8.41309C127.451 8.09082 128.477 7.8418 129.561 7.66602C130.674 7.49023 131.758 7.3584 132.812 7.27051C133.867 7.18262 134.893 7.12402 135.889 7.09473C136.885 7.06543 137.764 7.05078 138.525 7.05078C138.584 7.05078 138.716 7.06543 138.921 7.09473C139.126 7.09473 139.346 7.10938 139.58 7.13867C139.814 7.13867 140.02 7.13867 140.195 7.13867C140.4 7.13867 140.547 7.13867 140.635 7.13867C140.752 7.7832 140.679 8.2373 140.415 8.50098C140.181 8.73535 139.858 8.88184 139.448 8.94043C139.067 8.96973 138.657 8.95508 138.218 8.89648C137.778 8.80859 137.456 8.79395 137.251 8.85254C136.958 8.88184 136.489 8.96973 135.845 9.11621C135.229 9.2334 134.541 9.37988 133.779 9.55566C133.018 9.70215 132.197 9.87793 131.318 10.083C130.469 10.2588 129.648 10.4346 128.857 10.6104C128.096 10.7568 127.407 10.9033 126.792 11.0498C126.177 11.1963 125.723 11.2988 125.43 11.3574C124.961 11.5332 124.697 11.7529 124.639 12.0166C124.58 12.2803 124.551 12.5879 124.551 12.9395C124.551 13.5547 124.58 14.2432 124.639 15.0049C124.727 15.7666 124.814 16.5283 124.902 17.29C125.02 18.0225 125.122 18.6963 125.21 19.3115C125.327 19.9268 125.4 20.3809 125.43 20.6738C125.547 20.7031 125.767 20.7178 126.089 20.7178C126.411 20.7178 126.631 20.7178 126.748 20.7178C127.422 20.7178 128.081 20.6592 128.726 20.542C129.37 20.4248 130.015 20.293 130.659 20.1465C131.304 20 131.963 19.8828 132.637 19.7949C133.311 19.6777 133.999 19.6191 134.702 19.6191V21.2451C134.409 21.2451 133.999 21.2744 133.472 21.333C132.944 21.3623 132.358 21.4355 131.714 21.5527C131.099 21.6699 130.469 21.8018 129.824 21.9482C129.18 22.0654 128.594 22.1973 128.066 22.3438C127.539 22.4902 127.1 22.6367 126.748 22.7832C126.426 22.9297 126.265 23.0762 126.265 23.2227V32.3633C127.642 32.3633 129.004 32.3193 130.352 32.2314C131.729 32.1436 133.105 32.0557 134.482 31.9678C135.859 31.8506 137.236 31.748 138.613 31.6602C139.99 31.5723 141.367 31.5283 142.744 31.5283C142.744 31.8799 142.627 32.1729 142.393 32.4072C142.158 32.6123 141.88 32.7881 141.558 32.9346C141.265 33.0518 140.942 33.1396 140.591 33.1982C140.239 33.2568 139.976 33.3008 139.8 33.3301C139.683 33.3594 139.316 33.4033 138.701 33.4619C138.086 33.5205 137.324 33.6084 136.416 33.7256C135.508 33.8428 134.497 33.96 133.384 34.0771C132.271 34.1943 131.172 34.3115 130.088 34.4287C129.004 34.5459 127.979 34.6631 127.012 34.7803C126.045 34.8682 125.239 34.9414 124.595 35C124.507 35.0293 124.375 35.0439 124.199 35.0439C124.199 31.1182 124.067 27.1631 123.804 23.1787C123.569 19.165 122.983 15.2246 122.046 11.3574ZM144.15 23.6182C144.15 22.71 144.238 21.6992 144.414 20.5859C144.619 19.4434 144.912 18.3008 145.293 17.1582C145.674 15.9863 146.143 14.8584 146.699 13.7744C147.285 12.6611 147.944 11.6797 148.677 10.8301C149.438 9.95117 150.288 9.24805 151.226 8.7207C152.192 8.19336 153.247 7.92969 154.39 7.92969C155.21 7.92969 155.898 8.09082 156.455 8.41309C157.041 8.73535 157.51 9.16016 157.861 9.6875C158.213 10.2148 158.462 10.8154 158.608 11.4893C158.784 12.1338 158.872 12.793 158.872 13.4668C158.228 13.4668 157.744 13.2764 157.422 12.8955C157.1 12.4854 156.792 12.0459 156.499 11.5771C156.235 11.0791 155.913 10.6396 155.532 10.2588C155.181 9.84863 154.639 9.64355 153.906 9.64355C152.939 9.64355 152.075 9.90723 151.313 10.4346C150.581 10.9619 149.937 11.6504 149.38 12.5C148.823 13.3203 148.354 14.2578 147.974 15.3125C147.622 16.3672 147.329 17.4219 147.095 18.4766C146.89 19.5312 146.743 20.5566 146.655 21.5527C146.567 22.5195 146.523 23.3398 146.523 24.0137C146.406 25.0098 146.392 26.0498 146.479 27.1338C146.597 28.1885 146.846 29.1699 147.227 30.0781C147.607 30.957 148.164 31.7041 148.896 32.3193C149.629 32.9053 150.596 33.2422 151.797 33.3301C152.559 33.3301 153.408 33.2129 154.346 32.9785C155.283 32.7148 156.206 32.4219 157.114 32.0996C158.052 31.748 158.945 31.3818 159.795 31.001C160.645 30.5908 161.362 30.2393 161.948 29.9463V31.6602C161.919 31.6602 161.729 31.7334 161.377 31.8799C161.055 31.9971 160.615 32.1582 160.059 32.3633C159.531 32.5684 158.916 32.7881 158.213 33.0225C157.539 33.2568 156.865 33.5059 156.191 33.7695C155.518 34.0039 154.858 34.2383 154.214 34.4727C153.599 34.6777 153.071 34.8535 152.632 35C152.603 35 152.544 35 152.456 35C152.368 35.0293 152.295 35.0439 152.236 35.0439C150.625 35.0439 149.292 34.707 148.237 34.0332C147.212 33.3301 146.392 32.4365 145.776 31.3525C145.161 30.2393 144.736 29.0088 144.502 27.6611C144.268 26.2842 144.15 24.9365 144.15 23.6182ZM163.53 20.4102C163.53 19.4434 163.589 18.418 163.706 17.334C163.853 16.25 164.072 15.1953 164.365 14.1699C164.688 13.1152 165.083 12.1191 165.552 11.1816C166.05 10.2148 166.636 9.37988 167.31 8.67676C168.013 7.94434 168.818 7.37305 169.727 6.96289C170.664 6.52344 171.719 6.30371 172.891 6.30371C173.916 6.30371 174.824 6.59668 175.615 7.18262C176.406 7.73926 177.095 8.48633 177.681 9.42383C178.267 10.332 178.75 11.3721 179.131 12.5439C179.512 13.7158 179.819 14.9023 180.054 16.1035C180.317 17.2754 180.493 18.418 180.581 19.5312C180.669 20.6152 180.713 21.5527 180.713 22.3438C180.596 24.0723 180.347 25.6689 179.966 27.1338C179.585 28.5693 179.058 29.8438 178.384 30.957C177.739 32.041 176.934 32.9346 175.967 33.6377C175 34.3408 173.828 34.8096 172.451 35.0439C171.133 35.0439 170.005 34.8096 169.067 34.3408C168.13 33.8721 167.324 33.2568 166.65 32.4951C165.977 31.7334 165.435 30.8545 165.024 29.8584C164.614 28.8623 164.292 27.8223 164.058 26.7383C163.853 25.6543 163.706 24.5703 163.618 23.4863C163.56 22.373 163.53 21.3477 163.53 20.4102ZM165.2 20.4102C165.2 21.1133 165.215 21.9043 165.244 22.7832C165.273 23.6621 165.347 24.5557 165.464 25.4639C165.61 26.3428 165.815 27.2217 166.079 28.1006C166.343 28.9502 166.694 29.7119 167.134 30.3857C167.603 31.0303 168.174 31.5576 168.848 31.9678C169.551 32.3779 170.386 32.583 171.353 32.583C172.759 32.6709 173.916 32.4951 174.824 32.0557C175.732 31.6162 176.465 30.9424 177.021 30.0342C177.578 29.126 178.003 28.0273 178.296 26.7383C178.589 25.4492 178.823 23.9844 178.999 22.3438C178.999 21.6992 178.97 20.8936 178.911 19.9268C178.853 18.96 178.735 17.9492 178.56 16.8945C178.413 15.8398 178.193 14.7852 177.9 13.7305C177.637 12.6465 177.271 11.6797 176.802 10.8301C176.362 9.95117 175.82 9.24805 175.176 8.7207C174.561 8.19336 173.813 7.92969 172.935 7.92969C172.026 7.92969 171.206 8.14941 170.474 8.58887C169.741 8.99902 169.082 9.55566 168.496 10.2588C167.939 10.9326 167.441 11.709 167.002 12.5879C166.592 13.4668 166.255 14.375 165.991 15.3125C165.728 16.2207 165.522 17.1289 165.376 18.0371C165.259 18.916 165.2 19.707 165.2 20.4102ZM184.492 31.6602C184.639 31.3086 184.858 31.0889 185.151 31.001C185.474 30.9131 185.811 31.1328 186.162 31.6602C186.162 31.7188 186.294 31.8066 186.558 31.9238C186.851 32.0117 187.202 32.1289 187.612 32.2754C188.052 32.3926 188.55 32.5244 189.106 32.6709C189.692 32.7881 190.264 32.9053 190.82 33.0225C191.377 33.1104 191.919 33.1982 192.446 33.2861C192.974 33.3447 193.428 33.374 193.809 33.374C194.805 33.374 195.713 33.1689 196.533 32.7588C197.383 32.3193 198.101 31.7627 198.687 31.0889C199.302 30.415 199.771 29.6533 200.093 28.8037C200.415 27.9248 200.576 27.0312 200.576 26.123C200.576 25.8594 200.532 25.4053 200.444 24.7607C200.356 24.0869 200.21 23.4277 200.005 22.7832C199.8 22.1094 199.521 21.5088 199.17 20.9814C198.848 20.4541 198.452 20.1904 197.983 20.1904C194.937 20.542 192.432 20.6885 190.469 20.6299C188.535 20.542 186.997 20.3076 185.854 19.9268C184.712 19.5459 183.906 19.0332 183.438 18.3887C182.998 17.7148 182.764 16.9531 182.734 16.1035C182.734 15.0488 182.998 14.0381 183.525 13.0713C184.053 12.0752 184.727 11.1963 185.547 10.4346C186.367 9.67285 187.275 9.07227 188.271 8.63281C189.297 8.16406 190.308 7.92969 191.304 7.92969C192.124 7.92969 192.974 8.03223 193.853 8.2373C194.761 8.44238 195.596 8.76465 196.357 9.2041C197.119 9.61426 197.734 10.1709 198.203 10.874C198.701 11.5479 198.95 12.3682 198.95 13.335C198.247 13.335 197.603 13.1445 197.017 12.7637C196.431 12.3535 195.845 11.9287 195.259 11.4893C194.673 11.0498 194.058 10.6396 193.413 10.2588C192.769 9.84863 192.021 9.64355 191.172 9.64355C190.469 9.64355 189.751 9.81934 189.019 10.1709C188.315 10.5225 187.671 10.9766 187.085 11.5332C186.528 12.0898 186.06 12.7197 185.679 13.4229C185.327 14.0967 185.151 14.7998 185.151 15.5322C185.151 15.8252 185.151 16.1475 185.151 16.499C185.181 16.8213 185.254 17.1436 185.371 17.4658C185.488 17.7588 185.664 18.0078 185.898 18.2129C186.162 18.418 186.528 18.5205 186.997 18.5205H198.818C199.316 18.5205 199.741 18.6816 200.093 19.0039C200.474 19.2969 200.781 19.6777 201.016 20.1465C201.279 20.6152 201.484 21.1426 201.631 21.7285C201.807 22.3145 201.938 22.8857 202.026 23.4424C202.144 23.999 202.217 24.5264 202.246 25.0244C202.275 25.4932 202.29 25.8594 202.29 26.123C202.29 27.2656 202.129 28.3496 201.807 29.375C201.484 30.3711 201.001 31.2793 200.356 32.0996C199.712 32.8906 198.906 33.5498 197.939 34.0771C196.973 34.5752 195.859 34.8828 194.6 35C193.984 35.0586 193.179 35.0439 192.183 34.9561C191.216 34.8682 190.234 34.707 189.238 34.4727C188.242 34.209 187.305 33.8574 186.426 33.418C185.547 32.9492 184.902 32.3633 184.492 31.6602ZM216.528 20.6738C216.089 20.0293 215.488 19.2383 214.727 18.3008C213.994 17.3633 213.203 16.3525 212.354 15.2686C211.504 14.1553 210.625 13.0127 209.717 11.8408C208.809 10.6689 207.959 9.54102 207.168 8.45703C206.406 7.34375 205.732 6.31836 205.146 5.38086C204.561 4.41406 204.136 3.59375 203.872 2.91992L204.751 2.12891C205.835 3.30078 206.772 4.38477 207.563 5.38086C208.384 6.34766 209.116 7.27051 209.761 8.14941C210.405 8.99902 210.991 9.81934 211.519 10.6104C212.046 11.4014 212.588 12.207 213.145 13.0273C213.73 13.8184 214.36 14.6387 215.034 15.4883C215.708 16.3086 216.499 17.1875 217.407 18.125C217.583 17.3047 217.744 16.3965 217.891 15.4004C218.066 14.375 218.242 13.3203 218.418 12.2363C218.594 11.1523 218.784 10.0537 218.989 8.94043C219.194 7.79785 219.429 6.71387 219.692 5.68848C219.956 4.63379 220.234 3.65234 220.527 2.74414C220.85 1.83594 221.216 1.05957 221.626 0.415039C221.655 0.385742 221.714 0.371094 221.802 0.371094C221.919 0.371094 222.007 0.371094 222.065 0.371094C222.153 0.371094 222.271 0.385742 222.417 0.415039C222.593 0.444336 222.754 0.50293 222.9 0.59082C223.047 0.649414 223.164 0.737305 223.252 0.854492C223.34 0.97168 223.354 1.10352 223.296 1.25C222.974 1.92383 222.637 2.83203 222.285 3.97461C221.963 5.11719 221.641 6.40625 221.318 7.8418C221.025 9.24805 220.747 10.7861 220.483 12.4561C220.22 14.0967 219.971 15.7666 219.736 17.4658C219.531 19.165 219.341 20.8643 219.165 22.5635C218.989 24.2334 218.857 25.8008 218.77 27.2656C218.682 28.7305 218.638 30.0635 218.638 31.2646C218.667 32.4658 218.74 33.4326 218.857 34.165C218.799 34.4873 218.74 34.7363 218.682 34.9121C218.652 35.0586 218.564 35.1758 218.418 35.2637C218.271 35.3516 218.052 35.3955 217.759 35.3955C217.466 35.4248 217.056 35.4395 216.528 35.4395V20.6738ZM225.977 31.6602C226.123 31.3086 226.343 31.0889 226.636 31.001C226.958 30.9131 227.295 31.1328 227.646 31.6602C227.646 31.7188 227.778 31.8066 228.042 31.9238C228.335 32.0117 228.687 32.1289 229.097 32.2754C229.536 32.3926 230.034 32.5244 230.591 32.6709C231.177 32.7881 231.748 32.9053 232.305 33.0225C232.861 33.1104 233.403 33.1982 233.931 33.2861C234.458 33.3447 234.912 33.374 235.293 33.374C236.289 33.374 237.197 33.1689 238.018 32.7588C238.867 32.3193 239.585 31.7627 240.171 31.0889C240.786 30.415 241.255 29.6533 241.577 28.8037C241.899 27.9248 242.061 27.0312 242.061 26.123C242.061 25.8594 242.017 25.4053 241.929 24.7607C241.841 24.0869 241.694 23.4277 241.489 22.7832C241.284 22.1094 241.006 21.5088 240.654 20.9814C240.332 20.4541 239.937 20.1904 239.468 20.1904C236.421 20.542 233.916 20.6885 231.953 20.6299C230.02 20.542 228.481 20.3076 227.339 19.9268C226.196 19.5459 225.391 19.0332 224.922 18.3887C224.482 17.7148 224.248 16.9531 224.219 16.1035C224.219 15.0488 224.482 14.0381 225.01 13.0713C225.537 12.0752 226.211 11.1963 227.031 10.4346C227.852 9.67285 228.76 9.07227 229.756 8.63281C230.781 8.16406 231.792 7.92969 232.788 7.92969C233.608 7.92969 234.458 8.03223 235.337 8.2373C236.245 8.44238 237.08 8.76465 237.842 9.2041C238.604 9.61426 239.219 10.1709 239.688 10.874C240.186 11.5479 240.435 12.3682 240.435 13.335C239.731 13.335 239.087 13.1445 238.501 12.7637C237.915 12.3535 237.329 11.9287 236.743 11.4893C236.157 11.0498 235.542 10.6396 234.897 10.2588C234.253 9.84863 233.506 9.64355 232.656 9.64355C231.953 9.64355 231.235 9.81934 230.503 10.1709C229.8 10.5225 229.155 10.9766 228.569 11.5332C228.013 12.0898 227.544 12.7197 227.163 13.4229C226.812 14.0967 226.636 14.7998 226.636 15.5322C226.636 15.8252 226.636 16.1475 226.636 16.499C226.665 16.8213 226.738 17.1436 226.855 17.4658C226.973 17.7588 227.148 18.0078 227.383 18.2129C227.646 18.418 228.013 18.5205 228.481 18.5205H240.303C240.801 18.5205 241.226 18.6816 241.577 19.0039C241.958 19.2969 242.266 19.6777 242.5 20.1465C242.764 20.6152 242.969 21.1426 243.115 21.7285C243.291 22.3145 243.423 22.8857 243.511 23.4424C243.628 23.999 243.701 24.5264 243.73 25.0244C243.76 25.4932 243.774 25.8594 243.774 26.123C243.774 27.2656 243.613 28.3496 243.291 29.375C242.969 30.3711 242.485 31.2793 241.841 32.0996C241.196 32.8906 240.391 33.5498 239.424 34.0771C238.457 34.5752 237.344 34.8828 236.084 35C235.469 35.0586 234.663 35.0439 233.667 34.9561C232.7 34.8682 231.719 34.707 230.723 34.4727C229.727 34.209 228.789 33.8574 227.91 33.418C227.031 32.9492 226.387 32.3633 225.977 31.6602ZM245.312 11.1377L246.016 8.85254C246.045 8.82324 246.265 8.79395 246.675 8.76465C247.114 8.70605 247.686 8.64746 248.389 8.58887C249.092 8.50098 249.883 8.41309 250.762 8.3252C251.641 8.2373 252.534 8.14941 253.442 8.06152C254.38 7.97363 255.288 7.88574 256.167 7.79785C257.075 7.70996 257.91 7.62207 258.672 7.53418C258.672 7.53418 258.804 7.53418 259.067 7.53418C259.331 7.53418 259.624 7.53418 259.946 7.53418C260.269 7.53418 260.576 7.53418 260.869 7.53418C261.162 7.53418 261.353 7.53418 261.44 7.53418C262.144 7.53418 262.627 7.66602 262.891 7.92969C263.154 8.19336 263.286 8.76465 263.286 9.64355L255.288 10.5664C255.229 12.4121 255.259 14.3457 255.376 16.3672C255.493 18.3887 255.64 20.4395 255.815 22.5195C255.991 24.5703 256.152 26.6064 256.299 28.6279C256.475 30.6494 256.562 32.583 256.562 34.4287C256.562 34.6924 256.475 34.8828 256.299 35C256.152 35.0879 255.962 35.1465 255.728 35.1758C255.522 35.2051 255.303 35.1904 255.068 35.1318C254.834 35.1025 254.629 35.0586 254.453 35C254.365 34.6191 254.277 33.96 254.189 33.0225C254.102 32.085 254.014 30.9863 253.926 29.7266C253.838 28.4668 253.75 27.1045 253.662 25.6396C253.574 24.1748 253.486 22.71 253.398 21.2451C253.311 19.7803 253.223 18.3887 253.135 17.0703C253.047 15.7227 252.974 14.5508 252.915 13.5547C252.856 12.5293 252.798 11.7383 252.739 11.1816C252.71 10.625 252.681 10.4199 252.651 10.5664L245.312 11.1377ZM262.671 11.3574C263.14 10.6836 263.755 10.1123 264.517 9.64355C265.308 9.14551 266.172 8.73535 267.109 8.41309C268.076 8.09082 269.102 7.8418 270.186 7.66602C271.299 7.49023 272.383 7.3584 273.438 7.27051C274.492 7.18262 275.518 7.12402 276.514 7.09473C277.51 7.06543 278.389 7.05078 279.15 7.05078C279.209 7.05078 279.341 7.06543 279.546 7.09473C279.751 7.09473 279.971 7.10938 280.205 7.13867C280.439 7.13867 280.645 7.13867 280.82 7.13867C281.025 7.13867 281.172 7.13867 281.26 7.13867C281.377 7.7832 281.304 8.2373 281.04 8.50098C280.806 8.73535 280.483 8.88184 280.073 8.94043C279.692 8.96973 279.282 8.95508 278.843 8.89648C278.403 8.80859 278.081 8.79395 277.876 8.85254C277.583 8.88184 277.114 8.96973 276.47 9.11621C275.854 9.2334 275.166 9.37988 274.404 9.55566C273.643 9.70215 272.822 9.87793 271.943 10.083C271.094 10.2588 270.273 10.4346 269.482 10.6104C268.721 10.7568 268.032 10.9033 267.417 11.0498C266.802 11.1963 266.348 11.2988 266.055 11.3574C265.586 11.5332 265.322 11.7529 265.264 12.0166C265.205 12.2803 265.176 12.5879 265.176 12.9395C265.176 13.5547 265.205 14.2432 265.264 15.0049C265.352 15.7666 265.439 16.5283 265.527 17.29C265.645 18.0225 265.747 18.6963 265.835 19.3115C265.952 19.9268 266.025 20.3809 266.055 20.6738C266.172 20.7031 266.392 20.7178 266.714 20.7178C267.036 20.7178 267.256 20.7178 267.373 20.7178C268.047 20.7178 268.706 20.6592 269.351 20.542C269.995 20.4248 270.64 20.293 271.284 20.1465C271.929 20 272.588 19.8828 273.262 19.7949C273.936 19.6777 274.624 19.6191 275.327 19.6191V21.2451C275.034 21.2451 274.624 21.2744 274.097 21.333C273.569 21.3623 272.983 21.4355 272.339 21.5527C271.724 21.6699 271.094 21.8018 270.449 21.9482C269.805 22.0654 269.219 22.1973 268.691 22.3438C268.164 22.4902 267.725 22.6367 267.373 22.7832C267.051 22.9297 266.89 23.0762 266.89 23.2227V32.3633C268.267 32.3633 269.629 32.3193 270.977 32.2314C272.354 32.1436 273.73 32.0557 275.107 31.9678C276.484 31.8506 277.861 31.748 279.238 31.6602C280.615 31.5723 281.992 31.5283 283.369 31.5283C283.369 31.8799 283.252 32.1729 283.018 32.4072C282.783 32.6123 282.505 32.7881 282.183 32.9346C281.89 33.0518 281.567 33.1396 281.216 33.1982C280.864 33.2568 280.601 33.3008 280.425 33.3301C280.308 33.3594 279.941 33.4033 279.326 33.4619C278.711 33.5205 277.949 33.6084 277.041 33.7256C276.133 33.8428 275.122 33.96 274.009 34.0771C272.896 34.1943 271.797 34.3115 270.713 34.4287C269.629 34.5459 268.604 34.6631 267.637 34.7803C266.67 34.8682 265.864 34.9414 265.22 35C265.132 35.0293 265 35.0439 264.824 35.0439C264.824 31.1182 264.692 27.1631 264.429 23.1787C264.194 19.165 263.608 15.2246 262.671 11.3574ZM294.312 23.2227H292.642L288.423 14.7852V34.165L286.489 34.4287C286.431 33.4033 286.372 32.1143 286.313 30.5615C286.284 29.0088 286.24 27.3389 286.182 25.5518C286.152 23.7354 286.123 21.875 286.094 19.9707C286.064 18.0664 286.035 16.2354 286.006 14.4775C285.977 12.7197 285.933 11.1084 285.874 9.64355C285.845 8.17871 285.801 6.99219 285.742 6.08398C285.947 6.08398 286.138 6.06934 286.313 6.04004C286.519 6.01074 286.694 5.99609 286.841 5.99609C286.987 5.9668 287.119 5.98145 287.236 6.04004C287.354 6.09863 287.456 6.23047 287.544 6.43555L293.477 19.7949L298.53 7.13867C298.589 6.99219 298.691 6.875 298.838 6.78711C299.014 6.66992 299.189 6.56738 299.365 6.47949C299.57 6.3916 299.775 6.33301 299.98 6.30371C300.186 6.24512 300.361 6.21582 300.508 6.21582C300.537 6.21582 300.552 6.25977 300.552 6.34766C300.552 6.43555 300.581 6.74316 300.64 7.27051C300.698 7.79785 300.786 8.63281 300.903 9.77539C301.05 10.8887 301.27 12.4854 301.562 14.5654C301.855 16.6162 302.222 19.2383 302.661 22.4316C303.13 25.5957 303.716 29.5068 304.419 34.165C304.302 34.4287 304.141 34.6045 303.936 34.6924C303.76 34.7803 303.584 34.8096 303.408 34.7803C303.262 34.751 303.115 34.6924 302.969 34.6045C302.852 34.4873 302.778 34.3408 302.749 34.165L299.409 10.5664L294.312 23.2227Z" fill="url(#paint0_linear_7_140)"/>
<defs>
<linearGradient id="paint0_linear_7_140" x1="-8" y1="21" x2="313" y2="21" gradientUnits="userSpaceOnUse">
<stop stop-color="#1E9AFE"/>
<stop offset="1" stop-color="#60DFCD"/>
</linearGradient>
</defs>
</svg>
