<svg width="160" height="160" viewBox="0 0 160 160" fill="none" xmlns="http://www.w3.org/2000/svg">
<path d="M65.382 112.608L62.31 124H33.382C33.2967 122.464 33.0833 120.416 32.742 117.856C32.486 115.211 32.1447 112.565 31.718 109.92C31.2913 107.275 30.822 105.184 30.31 103.648L33.766 102.112C35.302 106.805 37.3073 110.56 39.782 113.376C42.342 116.107 46.0113 117.472 50.79 117.472C52.6673 117.472 54.8007 117.216 57.19 116.704L57.83 114.4C51.3447 110.56 46.1393 105.44 42.214 99.04C38.374 92.64 36.454 85.6 36.454 77.92C36.454 72.032 37.5633 66.528 39.782 61.408C42.086 56.288 45.2007 51.808 49.126 47.968C53.1367 44.0427 57.7873 41.0133 63.078 38.88C68.3687 36.6613 74.0007 35.552 79.974 35.552C86.0327 35.552 91.6647 36.6613 96.87 38.88C102.161 41.0133 106.769 44.0427 110.694 47.968C114.705 51.808 117.819 56.288 120.038 61.408C122.342 66.528 123.494 72.032 123.494 77.92C123.494 85.6 121.574 92.64 117.734 99.04C113.894 105.44 108.689 110.56 102.118 114.4L102.758 116.704C105.233 117.216 107.366 117.472 109.158 117.472C113.937 117.472 117.563 116.107 120.038 113.376C122.598 110.56 124.646 106.805 126.182 102.112L129.638 103.648C129.126 105.184 128.657 107.275 128.23 109.92C127.803 112.565 127.419 115.211 127.078 117.856C126.822 120.416 126.651 122.464 126.566 124H97.638L94.566 112.608C97.894 110.475 100.667 107.403 102.886 103.392C105.19 99.296 106.897 94.8587 108.006 90.08C109.115 85.216 109.67 80.6507 109.67 76.384C109.67 70.0693 108.305 64.352 105.574 59.232C102.929 54.0267 99.3447 49.9307 94.822 46.944C90.3847 43.872 85.4353 42.336 79.974 42.336C74.5127 42.336 69.5207 43.872 64.998 46.944C60.5607 49.9307 56.9767 54.0267 54.246 59.232C51.6007 64.352 50.278 70.0693 50.278 76.384C50.278 80.6507 50.8327 85.216 51.942 90.08C53.0513 94.8587 54.7153 99.296 56.934 103.392C59.238 107.403 62.054 110.475 65.382 112.608Z" fill="white" fill-opacity="0.15"/>
<path d="M28.3643 79.4102C28.3643 78.4434 28.4229 77.418 28.54 76.334C28.6865 75.25 28.9062 74.1953 29.1992 73.1699C29.5215 72.1152 29.917 71.1191 30.3857 70.1816C30.8838 69.2148 31.4697 68.3799 32.1436 67.6768C32.8467 66.9443 33.6523 66.373 34.5605 65.9629C35.498 65.5234 36.5527 65.3037 37.7246 65.3037C38.75 65.3037 39.6582 65.5967 40.4492 66.1826C41.2402 66.7393 41.9287 67.4863 42.5146 68.4238C43.1006 69.332 43.584 70.3721 43.9648 71.5439C44.3457 72.7158 44.6533 73.9023 44.8877 75.1035C45.1514 76.2754 45.3271 77.418 45.415 78.5312C45.5029 79.6152 45.5469 80.5527 45.5469 81.3438C45.4297 83.0723 45.1807 84.6689 44.7998 86.1338C44.4189 87.5693 43.8916 88.8438 43.2178 89.957C42.5732 91.041 41.7676 91.9346 40.8008 92.6377C39.834 93.3408 38.6621 93.8096 37.2852 94.0439C35.9668 94.0439 34.8389 93.8096 33.9014 93.3408C32.9639 92.8721 32.1582 92.2568 31.4844 91.4951C30.8105 90.7334 30.2686 89.8545 29.8584 88.8584C29.4482 87.8623 29.126 86.8223 28.8916 85.7383C28.6865 84.6543 28.54 83.5703 28.4521 82.4863C28.3936 81.373 28.3643 80.3477 28.3643 79.4102ZM30.0342 79.4102C30.0342 80.1133 30.0488 80.9043 30.0781 81.7832C30.1074 82.6621 30.1807 83.5557 30.2979 84.4639C30.4443 85.3428 30.6494 86.2217 30.9131 87.1006C31.1768 87.9502 31.5283 88.7119 31.9678 89.3857C32.4365 90.0303 33.0078 90.5576 33.6816 90.9678C34.3848 91.3779 35.2197 91.583 36.1865 91.583C37.5928 91.6709 38.75 91.4951 39.6582 91.0557C40.5664 90.6162 41.2988 89.9424 41.8555 89.0342C42.4121 88.126 42.8369 87.0273 43.1299 85.7383C43.4229 84.4492 43.6572 82.9844 43.833 81.3438C43.833 80.6992 43.8037 79.8936 43.7451 78.9268C43.6865 77.96 43.5693 76.9492 43.3936 75.8945C43.2471 74.8398 43.0273 73.7852 42.7344 72.7305C42.4707 71.6465 42.1045 70.6797 41.6357 69.8301C41.1963 68.9512 40.6543 68.248 40.0098 67.7207C39.3945 67.1934 38.6475 66.9297 37.7686 66.9297C36.8604 66.9297 36.04 67.1494 35.3076 67.5889C34.5752 67.999 33.916 68.5557 33.3301 69.2588C32.7734 69.9326 32.2754 70.709 31.8359 71.5879C31.4258 72.4668 31.0889 73.375 30.8252 74.3125C30.5615 75.2207 30.3564 76.1289 30.21 77.0371C30.0928 77.916 30.0342 78.707 30.0342 79.4102ZM57.1045 82.2227H55.4346L51.2158 73.7852V93.165L49.2822 93.4287C49.2236 92.4033 49.165 91.1143 49.1064 89.5615C49.0771 88.0088 49.0332 86.3389 48.9746 84.5518C48.9453 82.7354 48.916 80.875 48.8867 78.9707C48.8574 77.0664 48.8281 75.2354 48.7988 73.4775C48.7695 71.7197 48.7256 70.1084 48.667 68.6436C48.6377 67.1787 48.5938 65.9922 48.5352 65.084C48.7402 65.084 48.9307 65.0693 49.1064 65.04C49.3115 65.0107 49.4873 64.9961 49.6338 64.9961C49.7803 64.9668 49.9121 64.9814 50.0293 65.04C50.1465 65.0986 50.249 65.2305 50.3369 65.4355L56.2695 78.7949L61.3232 66.1387C61.3818 65.9922 61.4844 65.875 61.6309 65.7871C61.8066 65.6699 61.9824 65.5674 62.1582 65.4795C62.3633 65.3916 62.5684 65.333 62.7734 65.3037C62.9785 65.2451 63.1543 65.2158 63.3008 65.2158C63.3301 65.2158 63.3447 65.2598 63.3447 65.3477C63.3447 65.4355 63.374 65.7432 63.4326 66.2705C63.4912 66.7979 63.5791 67.6328 63.6963 68.7754C63.8428 69.8887 64.0625 71.4854 64.3555 73.5654C64.6484 75.6162 65.0146 78.2383 65.4541 81.4316C65.9229 84.5957 66.5088 88.5068 67.2119 93.165C67.0947 93.4287 66.9336 93.6045 66.7285 93.6924C66.5527 93.7803 66.377 93.8096 66.2012 93.7803C66.0547 93.751 65.9082 93.6924 65.7617 93.6045C65.6445 93.4873 65.5713 93.3408 65.542 93.165L62.2021 69.5664L57.1045 82.2227ZM68.7061 70.3574C69.1748 69.6836 69.79 69.1123 70.5518 68.6436C71.3428 68.1455 72.207 67.7354 73.1445 67.4131C74.1113 67.0908 75.1367 66.8418 76.2207 66.666C77.334 66.4902 78.418 66.3584 79.4727 66.2705C80.5273 66.1826 81.5527 66.124 82.5488 66.0947C83.5449 66.0654 84.4238 66.0508 85.1855 66.0508C85.2441 66.0508 85.376 66.0654 85.5811 66.0947C85.7861 66.0947 86.0059 66.1094 86.2402 66.1387C86.4746 66.1387 86.6797 66.1387 86.8555 66.1387C87.0605 66.1387 87.207 66.1387 87.2949 66.1387C87.4121 66.7832 87.3389 67.2373 87.0752 67.501C86.8408 67.7354 86.5186 67.8818 86.1084 67.9404C85.7275 67.9697 85.3174 67.9551 84.8779 67.8965C84.4385 67.8086 84.1162 67.7939 83.9111 67.8525C83.6182 67.8818 83.1494 67.9697 82.5049 68.1162C81.8896 68.2334 81.2012 68.3799 80.4395 68.5557C79.6777 68.7021 78.8574 68.8779 77.9785 69.083C77.1289 69.2588 76.3086 69.4346 75.5176 69.6104C74.7559 69.7568 74.0674 69.9033 73.4521 70.0498C72.8369 70.1963 72.3828 70.2988 72.0898 70.3574C71.6211 70.5332 71.3574 70.7529 71.2988 71.0166C71.2402 71.2803 71.2109 71.5879 71.2109 71.9395C71.2109 72.5547 71.2402 73.2432 71.2988 74.0049C71.3867 74.7666 71.4746 75.5283 71.5625 76.29C71.6797 77.0225 71.7822 77.6963 71.8701 78.3115C71.9873 78.9268 72.0605 79.3809 72.0898 79.6738C72.207 79.7031 72.4268 79.7178 72.749 79.7178C73.0713 79.7178 73.291 79.7178 73.4082 79.7178C74.082 79.7178 74.7412 79.6592 75.3857 79.542C76.0303 79.4248 76.6748 79.293 77.3193 79.1465C77.9639 79 78.623 78.8828 79.2969 78.7949C79.9707 78.6777 80.6592 78.6191 81.3623 78.6191V80.2451C81.0693 80.2451 80.6592 80.2744 80.1318 80.333C79.6045 80.3623 79.0186 80.4355 78.374 80.5527C77.7588 80.6699 77.1289 80.8018 76.4844 80.9482C75.8398 81.0654 75.2539 81.1973 74.7266 81.3438C74.1992 81.4902 73.7598 81.6367 73.4082 81.7832C73.0859 81.9297 72.9248 82.0762 72.9248 82.2227V91.3633C74.3018 91.3633 75.6641 91.3193 77.0117 91.2314C78.3887 91.1436 79.7656 91.0557 81.1426 90.9678C82.5195 90.8506 83.8965 90.748 85.2734 90.6602C86.6504 90.5723 88.0273 90.5283 89.4043 90.5283C89.4043 90.8799 89.2871 91.1729 89.0527 91.4072C88.8184 91.6123 88.54 91.7881 88.2178 91.9346C87.9248 92.0518 87.6025 92.1396 87.251 92.1982C86.8994 92.2568 86.6357 92.3008 86.46 92.3301C86.3428 92.3594 85.9766 92.4033 85.3613 92.4619C84.7461 92.5205 83.9844 92.6084 83.0762 92.7256C82.168 92.8428 81.1572 92.96 80.0439 93.0771C78.9307 93.1943 77.832 93.3115 76.748 93.4287C75.6641 93.5459 74.6387 93.6631 73.6719 93.7803C72.7051 93.8682 71.8994 93.9414 71.2549 94C71.167 94.0293 71.0352 94.0439 70.8594 94.0439C70.8594 90.1182 70.7275 86.1631 70.4639 82.1787C70.2295 78.165 69.6436 74.2246 68.7061 70.3574ZM111.333 91.0996C110.19 91.6855 109.18 92.1543 108.301 92.5059C107.422 92.8574 106.572 93.1357 105.752 93.3408C104.932 93.5166 104.097 93.6338 103.247 93.6924C102.427 93.751 101.475 93.7803 100.391 93.7803C98.9551 93.7803 97.666 93.6191 96.5234 93.2969C95.3809 92.9453 94.3994 92.4326 93.5791 91.7588C92.7881 91.0557 92.1729 90.1768 91.7334 89.1221C91.2939 88.0381 91.0742 86.7344 91.0742 85.2109C91.0742 83.834 91.2061 82.3838 91.4697 80.8604C91.7627 79.3369 92.1729 77.8281 92.7002 76.334C93.2568 74.8105 93.9307 73.3604 94.7217 71.9834C95.542 70.5771 96.4941 69.3467 97.5781 68.292C98.6621 67.2373 99.8779 66.4023 101.226 65.7871C102.573 65.1426 104.067 64.8203 105.708 64.8203C106.323 64.8203 107.056 64.8936 107.905 65.04C108.755 65.1572 109.561 65.377 110.322 65.6992C111.113 65.9922 111.772 66.4316 112.3 67.0176C112.827 67.5742 113.091 68.292 113.091 69.1709C113.091 69.4932 112.93 69.6543 112.607 69.6543C112.314 69.625 111.934 69.5078 111.465 69.3027C111.025 69.0977 110.513 68.834 109.927 68.5117C109.37 68.1895 108.828 67.8818 108.301 67.5889C107.773 67.2959 107.29 67.0469 106.851 66.8418C106.411 66.6367 106.074 66.5635 105.84 66.6221C104.434 66.6221 103.159 66.9004 102.017 67.457C100.874 67.9844 99.834 68.7021 98.8965 69.6104C97.9883 70.5186 97.1826 71.5732 96.4795 72.7744C95.8057 73.9463 95.2344 75.1768 94.7656 76.4658C94.3262 77.7549 93.9893 79.0439 93.7549 80.333C93.5498 81.5928 93.4473 82.7939 93.4473 83.9365C93.2422 85.3135 93.3154 86.5146 93.667 87.54C94.0479 88.5361 94.6045 89.3711 95.3369 90.0449C96.0693 90.6895 96.9482 91.1729 97.9736 91.4951C98.999 91.8174 100.054 92.0078 101.138 92.0664C102.251 92.0957 103.35 91.9932 104.434 91.7588C105.518 91.4951 106.499 91.1143 107.378 90.6162C108.286 90.1182 109.019 89.5029 109.575 88.7705C110.161 88.0381 110.498 87.2178 110.586 86.3096C110.586 85.3721 110.396 84.5811 110.015 83.9365C109.663 83.292 109.18 82.75 108.564 82.3105C107.979 81.8711 107.29 81.5195 106.499 81.2559C105.737 80.9922 104.946 80.7871 104.126 80.6406C103.335 80.4941 102.529 80.3916 101.709 80.333C100.918 80.2744 100.186 80.2012 99.5117 80.1133V79.3223C99.5117 79.2637 99.8926 79.1611 100.654 79.0146C101.445 78.8682 102.368 78.707 103.423 78.5312C104.507 78.3555 105.62 78.1797 106.763 78.0039C107.905 77.8281 108.872 77.6963 109.663 77.6084C109.663 77.6084 109.736 77.6084 109.883 77.6084C110.029 77.5791 110.19 77.5645 110.366 77.5645C110.542 77.5645 110.718 77.5645 110.894 77.5645C111.069 77.5645 111.216 77.5645 111.333 77.5645C111.392 77.5645 111.494 77.5645 111.641 77.5645C111.816 77.5645 111.992 77.5645 112.168 77.5645C112.344 77.5645 112.505 77.5791 112.651 77.6084C112.827 77.6084 112.944 77.6084 113.003 77.6084C113.032 78.0186 113.062 78.6777 113.091 79.5859C113.149 80.4648 113.208 81.4609 113.267 82.5742C113.325 83.6582 113.384 84.8154 113.442 86.0459C113.501 87.2764 113.56 88.4482 113.618 89.5615C113.677 90.6455 113.721 91.627 113.75 92.5059C113.809 93.3848 113.853 94.0439 113.882 94.4834C113.882 94.6006 113.882 94.8203 113.882 95.1426C113.882 95.4648 113.882 95.8018 113.882 96.1533C113.911 96.5342 113.926 96.8711 113.926 97.1641C113.926 97.4863 113.926 97.7207 113.926 97.8672H113.003L111.333 91.0996ZM111.333 81.8271V79.1465C110.894 79.1465 110.439 79.2637 109.971 79.498C109.502 79.7031 109.106 79.9082 108.784 80.1133L111.333 81.8271ZM122.847 66.6221C123.931 66.6221 124.868 66.9443 125.659 67.5889C126.479 68.2041 127.183 69.0391 127.769 70.0938C128.384 71.1484 128.896 72.3643 129.307 73.7412C129.717 75.1182 130.054 76.5684 130.317 78.0918C130.581 79.5859 130.786 81.1094 130.933 82.6621C131.079 84.1855 131.182 85.6211 131.24 86.9688C131.299 88.3164 131.328 89.5322 131.328 90.6162C131.357 91.7002 131.372 92.5498 131.372 93.165H130.317L128.647 83.8926C128.501 83.7461 128.164 83.6582 127.637 83.6289C127.139 83.5996 126.538 83.6143 125.835 83.6729C125.161 83.7314 124.414 83.8193 123.594 83.9365C122.803 84.0244 122.041 84.0977 121.309 84.1562C120.605 84.1855 119.961 84.2002 119.375 84.2002C118.789 84.1709 118.364 84.0684 118.101 83.8926V93.165H115.859C115.859 93.0771 115.859 92.916 115.859 92.6816C115.889 92.418 115.903 92.1543 115.903 91.8906C115.903 91.627 115.918 91.3779 115.947 91.1436C115.977 90.9092 115.991 90.748 115.991 90.6602C116.167 88.9609 116.299 87.2471 116.387 85.5186C116.504 83.7607 116.636 82.0615 116.782 80.4209C116.929 78.7803 117.119 77.2129 117.354 75.7188C117.617 74.2246 117.983 72.877 118.452 71.6758C118.921 70.4453 119.507 69.4053 120.21 68.5557C120.913 67.6768 121.792 67.0322 122.847 66.6221ZM123.55 68.6436C122.788 68.6436 122.144 68.9219 121.616 69.4785C121.118 70.0059 120.708 70.709 120.386 71.5879C120.063 72.4375 119.814 73.3896 119.639 74.4443C119.463 75.499 119.346 76.5391 119.287 77.5645C119.229 78.5605 119.185 79.498 119.155 80.377C119.155 81.2266 119.155 81.8857 119.155 82.3545C120.591 82.3545 122.056 82.252 123.55 82.0469C125.044 81.8125 126.45 81.5781 127.769 81.3438C127.798 81.2266 127.812 81.0361 127.812 80.7725C127.842 80.5088 127.856 80.2158 127.856 79.8936C127.886 79.5713 127.9 79.2637 127.9 78.9707C127.93 78.6777 127.944 78.4873 127.944 78.3994C127.944 77.4326 127.886 76.5098 127.769 75.6309C127.681 74.752 127.476 73.9023 127.153 73.082C126.86 72.2324 126.421 71.4414 125.835 70.709C125.278 69.9766 124.517 69.2881 123.55 68.6436Z" fill="white"/>
<path d="M69.583 99.1562L70.1396 108.443C71.0088 108.443 71.8779 108.39 72.7471 108.282C73.626 108.165 74.5244 108.058 75.4424 107.96L75.501 108.443C75.4912 108.443 75.3984 108.458 75.2227 108.487C75.0566 108.507 74.832 108.536 74.5488 108.575C74.2754 108.604 73.9629 108.639 73.6113 108.678C73.2598 108.717 72.9082 108.756 72.5566 108.795C72.2051 108.834 71.8682 108.873 71.5459 108.912C71.2236 108.951 70.9453 108.98 70.7109 109C70.7012 109 70.6768 109 70.6377 109C70.5986 109.01 70.5547 109.015 70.5059 109.015C70.457 109.015 70.4082 109.015 70.3594 109.015C70.3105 109.015 70.2715 109.015 70.2422 109.015C70.0273 109.015 69.8516 108.902 69.7148 108.678C69.5781 108.443 69.4658 108.131 69.3779 107.74C69.29 107.34 69.2266 106.886 69.1875 106.378C69.1484 105.86 69.1191 105.323 69.0996 104.767C69.0801 104.21 69.0703 103.648 69.0703 103.082C69.0801 102.516 69.085 101.983 69.085 101.485C69.085 100.978 69.0801 100.519 69.0703 100.108C69.0703 99.6982 69.0557 99.3809 69.0264 99.1562H69.583ZM76.0576 98.7021C76.0576 98.585 76.0967 98.4922 76.1748 98.4238C76.2627 98.3457 76.3652 98.3066 76.4824 98.3066C76.4922 98.3066 76.5166 98.3066 76.5557 98.3066C76.5947 98.3066 76.6191 98.3066 76.6289 98.3066C76.6777 99.127 76.7217 99.9082 76.7607 100.65C76.7998 101.383 76.8291 102.105 76.8486 102.818C76.8779 103.531 76.8975 104.244 76.9072 104.957C76.917 105.66 76.9219 106.397 76.9219 107.169C76.9219 107.276 76.9268 107.423 76.9365 107.608C76.9561 107.794 76.9707 107.975 76.9805 108.15C77 108.326 77.0146 108.487 77.0244 108.634C77.0439 108.771 77.0537 108.844 77.0537 108.854L76.4238 108.971C76.4043 108.57 76.3848 108.111 76.3652 107.594C76.3457 107.066 76.3262 106.51 76.3066 105.924C76.2969 105.328 76.2822 104.718 76.2627 104.093C76.2529 103.458 76.2334 102.833 76.2041 102.218C76.1846 101.603 76.1602 101.012 76.1309 100.445C76.1113 99.8691 76.0869 99.3467 76.0576 98.8779V98.7021ZM77.3613 101.046L77.5957 100.284C77.6055 100.274 77.6787 100.265 77.8154 100.255C77.9619 100.235 78.1523 100.216 78.3867 100.196C78.6211 100.167 78.8848 100.138 79.1777 100.108C79.4707 100.079 79.7686 100.05 80.0713 100.021C80.3838 99.9912 80.6865 99.9619 80.9795 99.9326C81.2822 99.9033 81.5605 99.874 81.8145 99.8447C81.8145 99.8447 81.8584 99.8447 81.9463 99.8447C82.0342 99.8447 82.1318 99.8447 82.2393 99.8447C82.3467 99.8447 82.4492 99.8447 82.5469 99.8447C82.6445 99.8447 82.708 99.8447 82.7373 99.8447C82.9717 99.8447 83.1328 99.8887 83.2207 99.9766C83.3086 100.064 83.3525 100.255 83.3525 100.548L80.6865 100.855C80.667 101.471 80.6768 102.115 80.7158 102.789C80.7549 103.463 80.8037 104.146 80.8623 104.84C80.9209 105.523 80.9746 106.202 81.0234 106.876C81.082 107.55 81.1113 108.194 81.1113 108.81C81.1113 108.897 81.082 108.961 81.0234 109C80.9746 109.029 80.9111 109.049 80.833 109.059C80.7646 109.068 80.6914 109.063 80.6133 109.044C80.5352 109.034 80.4668 109.02 80.4082 109C80.3789 108.873 80.3496 108.653 80.3203 108.341C80.291 108.028 80.2617 107.662 80.2324 107.242C80.2031 106.822 80.1738 106.368 80.1445 105.88C80.1152 105.392 80.0859 104.903 80.0566 104.415C80.0273 103.927 79.998 103.463 79.9688 103.023C79.9395 102.574 79.915 102.184 79.8955 101.852C79.876 101.51 79.8564 101.246 79.8369 101.061C79.8271 100.875 79.8174 100.807 79.8076 100.855L77.3613 101.046ZM83.1475 101.119C83.3037 100.895 83.5088 100.704 83.7627 100.548C84.0264 100.382 84.3145 100.245 84.627 100.138C84.9492 100.03 85.291 99.9473 85.6523 99.8887C86.0234 99.8301 86.3848 99.7861 86.7363 99.7568C87.0879 99.7275 87.4297 99.708 87.7617 99.6982C88.0938 99.6885 88.3867 99.6836 88.6406 99.6836C88.6602 99.6836 88.7041 99.6885 88.7725 99.6982C88.8408 99.6982 88.9141 99.7031 88.9922 99.7129C89.0703 99.7129 89.1387 99.7129 89.1973 99.7129C89.2656 99.7129 89.3145 99.7129 89.3438 99.7129C89.3828 99.9277 89.3584 100.079 89.2705 100.167C89.1924 100.245 89.085 100.294 88.9482 100.313C88.8213 100.323 88.6846 100.318 88.5381 100.299C88.3916 100.27 88.2842 100.265 88.2158 100.284C88.1182 100.294 87.9619 100.323 87.7471 100.372C87.542 100.411 87.3125 100.46 87.0586 100.519C86.8047 100.567 86.5312 100.626 86.2383 100.694C85.9551 100.753 85.6816 100.812 85.418 100.87C85.1641 100.919 84.9346 100.968 84.7295 101.017C84.5244 101.065 84.373 101.1 84.2754 101.119C84.1191 101.178 84.0312 101.251 84.0117 101.339C83.9922 101.427 83.9824 101.529 83.9824 101.646C83.9824 101.852 83.9922 102.081 84.0117 102.335C84.041 102.589 84.0703 102.843 84.0996 103.097C84.1387 103.341 84.1729 103.565 84.2021 103.771C84.2412 103.976 84.2656 104.127 84.2754 104.225C84.3145 104.234 84.3877 104.239 84.4951 104.239C84.6025 104.239 84.6758 104.239 84.7148 104.239C84.9395 104.239 85.1592 104.22 85.374 104.181C85.5889 104.142 85.8037 104.098 86.0186 104.049C86.2334 104 86.4531 103.961 86.6777 103.932C86.9023 103.893 87.1318 103.873 87.3662 103.873V104.415C87.2686 104.415 87.1318 104.425 86.9561 104.444C86.7803 104.454 86.585 104.479 86.3701 104.518C86.165 104.557 85.9551 104.601 85.7402 104.649C85.5254 104.688 85.3301 104.732 85.1543 104.781C84.9785 104.83 84.832 104.879 84.7148 104.928C84.6074 104.977 84.5537 105.025 84.5537 105.074V108.121C85.0127 108.121 85.4668 108.106 85.916 108.077C86.375 108.048 86.834 108.019 87.293 107.989C87.752 107.95 88.2109 107.916 88.6699 107.887C89.1289 107.857 89.5879 107.843 90.0469 107.843C90.0469 107.96 90.0078 108.058 89.9297 108.136C89.8516 108.204 89.7588 108.263 89.6514 108.312C89.5537 108.351 89.4463 108.38 89.3291 108.399C89.2119 108.419 89.124 108.434 89.0654 108.443C89.0264 108.453 88.9043 108.468 88.6992 108.487C88.4941 108.507 88.2402 108.536 87.9375 108.575C87.6348 108.614 87.2979 108.653 86.9268 108.692C86.5557 108.731 86.1895 108.771 85.8281 108.81C85.4668 108.849 85.125 108.888 84.8027 108.927C84.4805 108.956 84.2119 108.98 83.9971 109C83.9678 109.01 83.9238 109.015 83.8652 109.015C83.8652 107.706 83.8213 106.388 83.7334 105.06C83.6553 103.722 83.46 102.408 83.1475 101.119Z" fill="url(#paint0_linear_3_8)"/>
<defs>
<linearGradient id="paint0_linear_3_8" x1="57" y1="104.5" x2="102" y2="104.5" gradientUnits="userSpaceOnUse">
<stop stop-color="#FF9500"/>
<stop offset="0.25" stop-color="#FF5E3A"/>
<stop offset="0.5" stop-color="#FF2D55"/>
<stop offset="0.75" stop-color="#005BA6"/>
<stop offset="1" stop-color="#005499"/>
</linearGradient>
</defs>
</svg>
